<svg xmlns="http://www.w3.org/2000/svg" viewBox="0 0 113.51 106"><defs><style>.cls-1{fill:#662d91;}</style></defs><title>Asset 1</title><g id="Layer_2" data-name="Layer 2"><g id="Layer_1-2" data-name="Layer 1"><path class="cls-1" d="M55.69,1.86C56,1.16,56.32.4,57.37.5a2,2,0,0,1,1.75,1.34c.49,1.13,16,33.69,21.75,41.67.8,1.11,2.21.77,3.12-.25,3.7-4.17,2.62-17.08,3.7-16,1.07-1.08,2.33,12.1-.51,18.24-2.94,6.39-8.09,10.89-14.13,14.21a61.24,61.24,0,0,1-31.51,7.83,26.8,26.8,0,0,1-10-1.87c-4.74-2-6.31-5.6-4.3-10.39"/><path class="cls-1" d="M113.51,105.59c-.39.2-.6.47-.87.27-5-3.54-11-5.24-16.56-2.7-8.08,3.7-10.3,3.59-11.49.78-1.57-3.72-3.27-7.39-4.8-11.13-.51-1.25-2.7-2.2-4-2.19-14,0-24.69.15-38.66.11-1.15,0-3.44.81-3.92,1.82-1.89,4-4,7.94-5.81,12A2.2,2.2,0,0,1,25,106c-8.17,0-16.34,0-25,0L9.74,88A5.5,5.5,0,0,1,17,85.81a52.5,52.5,0,0,0,6.8,1.68c8.26,1,16.29-.4,24.24-2.38a83.21,83.21,0,0,0,31.3-14.82,44.62,44.62,0,0,0,9.38-9.81c6.5-9.33,7.82-19.42,4.77-30.24-.36-1.25-1.84-5-.61-4.46a58.66,58.66,0,0,1,5.71,17.79,33,33,0,0,1-3.28,20.12h0c-1.67,3.55-1.18,4,1,9.88s5.91,11.28,8.92,16.89"/><path class="cls-1" d="M96,14.84a11.25,11.25,0,0,0-1.82-2.65c-1.63-1.57-2.15,0-4.57-4.07a16.94,16.94,0,0,0-6.19-6.68C78-1.79,73.7.36,74.09,8.54a13.84,13.84,0,0,0,2.07,6.07c1,1.78,2.56,3.27,2.24,5.67-.13,1,.54,2.18.92,3.24.49,1.35,1.11,1.65,2.49.71s3.52-3.49,5-1.38c.85,1.18,5.15-1,4.87-2.65-.48-2.88,2.17-2.65,3.89-3.27S96.81,16.07,96,14.84Zm-14.2-2.29a2.3,2.3,0,1,1,2.3-2.3A2.29,2.29,0,0,1,81.76,12.55Z"/></g></g></svg>